<?xml version="1.0" encoding="UTF-8" ?>
<!DOCTYPE svg PUBLIC "-//W3C//DTD SVG 1.1//EN" "http://www.w3.org/Graphics/SVG/1.1/DTD/svg11.dtd">
<svg width="952pt" height="944pt" viewBox="0 0 952 944" version="1.1" xmlns="http://www.w3.org/2000/svg">
<g id="#030202ff">
<path fill="#030202" opacity="1.00" d=" M 465.50 0.00 L 490.87 0.00 C 530.86 1.55 570.75 7.42 609.22 18.59 C 681.38 39.28 748.43 77.42 803.18 128.77 C 856.11 178.24 897.55 240.00 922.86 307.92 C 940.21 354.18 949.90 403.23 952.00 452.58 L 952.00 490.47 C 949.54 551.01 935.39 611.07 910.11 666.15 C 878.78 734.83 830.54 795.61 771.08 842.07 C 718.31 883.42 656.72 913.44 591.61 929.45 C 559.98 937.30 527.54 941.72 494.98 943.10 C 476.69 944.65 458.35 943.24 440.08 942.08 C 371.13 937.05 303.33 916.82 242.97 883.11 C 179.32 847.70 123.97 797.47 82.65 737.48 C 41.34 677.73 14.21 608.25 4.35 536.27 C 1.86 518.43 0.53 500.45 0.00 482.46 L 0.00 457.15 C 0.29 453.10 0.48 449.06 0.69 445.01 C 4.72 370.82 26.94 297.74 64.79 233.81 C 109.16 158.46 174.90 95.96 252.24 55.20 C 317.72 20.45 391.42 1.60 465.50 0.00 M 448.64 8.88 C 378.60 12.95 309.55 33.08 248.38 67.44 C 172.70 109.70 109.23 173.53 67.59 249.57 C 30.59 316.73 10.96 393.31 11.01 469.98 C 10.83 518.39 18.37 566.83 33.30 612.88 C 56.42 684.48 97.57 750.09 151.67 802.34 C 204.78 853.91 270.37 892.53 341.26 913.85 C 408.21 934.11 479.70 938.91 548.82 928.32 C 639.96 914.52 726.53 872.70 794.14 810.07 C 856.99 752.20 903.52 676.69 926.25 594.28 C 943.57 532.02 947.44 466.12 937.89 402.22 C 928.34 337.99 904.83 275.92 869.57 221.40 C 828.93 158.32 772.75 105.39 707.43 68.48 C 629.37 24.05 538.24 3.32 448.64 8.88 Z" />
<path fill="#030202" opacity="1.00" d=" M 408.07 26.91 C 418.28 25.08 429.00 22.83 439.23 25.80 C 445.22 27.50 450.26 31.62 453.75 36.70 C 451.39 41.02 449.07 45.38 446.66 49.67 C 450.75 56.05 455.03 62.37 458.12 69.32 C 453.55 70.73 448.99 72.16 444.45 73.64 C 444.77 70.00 444.09 66.19 441.79 63.27 C 438.37 58.79 433.42 55.88 429.08 52.39 C 427.31 59.36 427.47 67.14 423.33 73.28 C 420.70 77.08 415.58 75.80 412.17 73.91 C 410.56 58.27 409.88 42.54 408.07 26.91 M 426.22 32.20 C 422.72 33.74 419.67 38.49 421.89 42.14 C 426.15 48.15 437.64 46.85 438.98 39.03 C 439.25 32.91 431.10 30.13 426.22 32.20 Z" />
<path fill="#030202" opacity="1.00" d=" M 467.45 24.65 C 480.50 25.08 493.55 25.52 506.60 25.98 C 505.54 30.44 502.86 34.63 498.61 36.61 C 490.13 40.73 480.40 39.54 471.34 41.06 C 473.45 45.91 477.15 50.16 482.13 52.15 C 486.74 54.24 491.90 54.35 496.88 54.29 C 496.64 54.76 496.17 55.70 495.94 56.18 C 489.76 57.25 483.56 58.23 477.38 59.27 C 480.02 62.41 482.69 65.52 485.33 68.65 C 488.77 69.25 492.22 69.86 495.66 70.48 C 496.16 72.16 496.67 73.85 497.17 75.53 C 486.99 74.90 476.81 74.29 466.62 73.70 C 466.29 57.35 466.50 40.98 467.45 24.65 Z" />
<path fill="#030202" opacity="1.00" d=" M 522.57 29.59 C 533.82 31.59 545.12 33.22 556.47 34.54 C 556.84 37.46 557.22 40.38 557.60 43.30 C 549.04 42.86 540.49 42.35 531.94 41.93 C 532.20 44.40 532.50 46.87 532.77 49.34 C 538.63 50.87 545.00 49.85 550.63 52.31 C 553.58 53.57 554.94 56.64 555.69 59.55 C 545.33 60.13 534.69 60.14 524.80 63.72 C 532.59 69.01 542.63 68.60 550.66 73.33 C 553.77 75.13 555.93 78.13 557.43 81.34 C 542.62 81.69 527.87 79.97 513.21 78.10 C 513.75 61.57 516.79 45.10 522.57 29.59 Z" />
<path fill="#030202" opacity="1.00" d=" M 365.07 40.93 C 365.26 38.25 368.07 37.08 370.17 36.08 C 373.41 34.61 377.14 35.93 379.61 38.25 C 385.91 43.97 389.47 52.57 397.37 56.52 C 396.44 57.59 395.52 58.67 394.61 59.75 C 399.21 64.73 401.79 71.45 401.01 78.26 C 395.61 76.14 389.52 75.23 383.92 77.14 C 375.25 79.97 368.64 86.58 362.03 92.55 C 361.49 75.32 361.43 57.87 365.07 40.93 M 381.26 60.26 C 380.73 62.77 378.41 66.16 380.77 68.34 C 384.03 69.45 387.78 66.91 388.99 63.89 C 388.54 60.33 383.96 60.59 381.26 60.26 Z" />
<path fill="#030202" opacity="1.00" d=" M 575.73 35.84 C 584.56 39.07 594.03 40.43 602.57 44.46 C 606.82 46.46 611.04 49.60 612.47 54.29 C 613.66 58.57 612.83 63.21 611.06 67.21 C 609.72 67.94 608.11 67.99 606.72 68.57 C 600.23 74.74 596.23 83.34 595.40 92.23 C 590.99 84.98 587.18 77.39 583.17 69.91 C 585.61 71.14 588.31 72.53 591.14 71.81 C 594.99 71.16 598.05 66.88 596.53 63.06 C 594.49 57.85 587.04 54.63 582.37 58.39 C 578.82 61.08 579.03 67.56 583.56 69.14 C 583.08 69.23 582.12 69.41 581.64 69.50 C 579.01 75.15 576.67 80.95 574.17 86.67 C 570.14 85.56 566.12 84.47 562.10 83.37 C 565.93 67.33 570.47 51.47 575.73 35.84 Z" />
<path fill="#030202" opacity="1.00" d=" M 318.88 57.96 C 323.08 55.99 328.14 54.37 332.63 56.38 C 336.18 58.01 337.97 61.70 339.40 65.11 C 332.37 66.13 325.13 67.91 319.35 72.26 C 316.19 74.56 313.90 78.78 315.50 82.67 C 317.63 88.31 323.27 91.35 326.57 96.19 C 328.05 95.59 329.49 94.81 330.53 93.55 C 337.04 86.60 342.18 77.84 351.12 73.66 C 353.33 81.23 352.30 89.94 347.14 96.11 C 338.43 106.87 321.99 109.37 309.94 103.02 C 307.52 98.11 305.12 93.19 302.71 88.28 C 301.73 86.68 302.29 84.77 302.39 83.03 C 303.05 77.70 303.32 72.33 304.10 67.02 C 308.72 63.57 313.73 60.56 318.88 57.96 Z" />
<path fill="#030202" opacity="1.00" d=" M 620.07 68.39 C 624.70 62.95 632.06 60.02 639.16 61.30 C 652.09 63.01 663.34 75.99 660.26 89.31 C 649.51 86.95 643.80 76.81 636.18 69.94 C 640.23 78.06 646.70 85.04 648.91 94.01 C 649.89 98.69 649.95 104.62 645.94 107.95 C 641.49 112.30 634.61 112.95 628.88 111.11 C 620.34 108.39 612.78 101.85 609.70 93.32 C 608.23 89.37 608.60 85.03 610.10 81.15 C 613.50 81.17 617.06 81.99 619.49 84.53 C 624.16 89.22 625.83 95.87 629.11 101.47 C 630.81 99.66 632.51 97.84 634.21 96.02 C 628.75 87.22 624.07 77.94 620.07 68.39 Z" />
<path fill="#030202" opacity="1.00" d=" M 458.59 96.89 C 506.97 94.14 555.91 101.56 601.20 118.81 C 668.92 144.37 727.91 191.53 769.09 250.92 C 812.46 312.99 836.17 388.34 837.01 464.00 C 838.12 530.29 821.91 596.87 789.84 654.94 C 762.22 705.22 722.88 749.11 675.53 781.55 C 625.85 815.76 567.22 836.94 507.06 841.77 C 462.31 845.49 416.83 840.50 374.00 826.96 C 307.78 806.20 248.45 765.00 204.71 711.25 C 157.61 653.76 128.45 582.01 121.35 508.08 C 114.95 443.25 124.85 376.76 150.76 316.93 C 179.27 250.56 227.32 192.54 287.93 153.11 C 338.62 119.92 398.06 100.16 458.59 96.89 M 459.62 106.90 C 431.93 108.47 404.44 113.48 377.98 121.82 C 311.50 142.62 252.22 184.64 209.30 239.36 C 165.19 295.19 138.18 364.13 131.91 434.97 C 127.49 483.76 132.42 533.43 146.81 580.28 C 158.36 618.01 176.00 653.88 198.92 686.01 C 238.96 742.36 295.62 787.04 360.46 811.33 C 433.48 839.03 516.22 840.03 589.90 814.14 C 639.25 796.96 684.38 768.11 721.16 731.05 C 760.32 691.75 790.11 643.27 807.90 590.74 C 832.65 517.88 834.26 437.41 812.66 363.58 C 802.33 328.20 786.68 294.38 766.34 263.64 C 727.42 204.65 670.79 157.21 605.12 130.80 C 559.19 112.17 509.09 104.03 459.62 106.90 Z" />
<path fill="#030202" opacity="1.00" d=" M 769.38 169.33 C 779.57 164.21 787.78 155.92 794.07 146.50 C 794.39 150.32 794.73 154.15 795.06 157.98 C 798.95 158.10 802.85 158.17 806.76 158.11 C 786.78 170.73 774.14 191.52 755.82 206.07 C 752.61 205.03 749.41 204.00 746.24 202.87 C 745.92 198.75 746.70 194.54 749.15 191.14 C 754.78 182.88 763.54 177.44 769.38 169.33 Z" />
<path fill="#030202" opacity="1.00" d=" M 177.13 156.14 C 181.58 153.03 187.36 153.21 192.36 154.70 C 184.27 162.60 175.97 170.27 167.89 178.17 C 178.73 175.03 189.47 171.54 200.30 168.36 C 192.69 177.47 184.52 186.09 176.78 195.10 C 189.00 191.27 200.93 186.63 213.02 182.44 C 209.00 189.18 204.73 195.78 200.13 202.15 C 199.43 203.25 198.37 204.00 197.16 204.43 C 190.76 207.08 184.39 209.79 178.06 212.59 C 169.10 199.40 160.34 186.08 151.48 172.83 C 157.83 169.41 164.25 166.10 170.48 162.45 C 173.08 160.77 174.42 157.71 177.13 156.14 Z" />
<path fill="#030202" opacity="1.00" d=" M 796.38 180.32 C 801.40 176.50 808.06 175.36 814.11 177.04 C 814.73 180.73 816.55 184.50 815.26 188.25 C 813.12 196.09 809.26 203.72 810.03 212.07 C 820.72 212.59 827.31 202.31 837.07 199.88 C 838.62 199.37 840.24 199.76 841.82 199.95 C 842.69 201.30 843.59 202.65 844.49 204.00 C 843.42 204.50 842.35 204.99 841.29 205.49 C 841.10 207.35 841.88 209.78 839.96 210.96 C 833.94 216.32 828.08 221.85 822.24 227.41 C 821.61 226.25 820.99 225.09 820.39 223.94 C 816.56 229.34 812.84 234.81 809.03 240.23 C 804.29 240.08 799.33 241.17 794.85 239.13 C 796.09 226.68 797.55 214.26 799.06 201.84 C 792.89 208.26 786.59 214.56 780.37 220.94 C 776.43 217.90 772.50 214.85 768.56 211.83 C 779.11 202.46 784.97 188.80 796.38 180.32 Z" />
<path fill="#030202" opacity="1.00" d=" M 132.91 198.88 C 131.27 193.25 133.27 187.33 136.76 182.85 C 147.56 197.59 157.96 212.71 166.29 229.01 C 162.66 237.19 154.53 242.71 145.63 243.35 C 144.39 242.05 143.13 240.76 141.88 239.47 C 142.22 239.11 142.89 238.40 143.22 238.04 C 134.23 233.90 123.81 233.87 115.18 228.84 C 110.87 226.41 108.05 222.06 106.85 217.34 C 108.25 216.25 109.66 215.18 111.06 214.10 C 115.98 214.51 120.95 214.38 125.83 215.08 C 133.30 218.57 140.50 222.64 147.92 226.26 C 143.83 216.63 135.70 209.11 132.91 198.88 Z" />
<path fill="#030202" opacity="1.00" d=" M 413.97 221.04 C 435.59 212.91 454.90 198.64 478.03 194.71 C 481.01 193.80 483.89 195.21 486.70 196.07 C 507.26 202.83 525.95 213.98 545.83 222.38 C 562.01 228.87 578.26 235.24 595.02 240.09 C 640.01 253.48 686.61 260.01 732.67 268.52 C 728.46 338.42 731.74 409.39 715.77 478.07 C 711.17 497.00 706.05 515.84 699.39 534.16 C 684.78 574.71 664.11 612.97 639.02 647.98 C 628.62 663.00 616.36 676.59 603.96 689.98 C 567.45 728.99 525.02 763.77 475.51 784.83 C 411.45 750.41 355.14 701.38 313.19 641.90 C 290.58 609.89 272.14 574.90 259.00 537.96 C 252.22 518.17 245.29 498.38 240.85 477.90 C 225.19 409.15 226.60 338.22 224.37 268.17 C 268.80 260.74 313.51 254.00 356.90 241.60 C 376.37 236.09 395.49 229.30 413.97 221.04 M 416.87 224.81 C 397.52 233.42 377.53 240.57 357.13 246.27 C 315.23 258.12 272.12 264.74 229.25 271.89 C 230.23 307.28 230.52 342.70 232.54 378.05 C 235.08 422.25 240.58 466.63 254.10 508.93 C 260.12 526.93 265.89 545.05 273.60 562.42 C 313.61 654.70 386.56 731.34 474.54 779.45 C 476.75 781.17 479.16 779.05 481.30 778.27 C 534.23 753.83 578.63 714.30 616.59 670.63 C 627.61 658.40 637.06 644.88 646.23 631.23 C 667.85 598.59 685.64 563.36 698.36 526.31 C 709.06 494.43 716.99 461.54 720.76 428.09 C 726.90 376.33 725.94 324.11 728.85 272.13 C 681.55 263.57 633.71 256.71 587.73 242.27 C 573.08 237.76 558.86 232.03 544.64 226.38 C 525.36 218.22 507.21 207.47 487.35 200.70 C 484.34 199.69 481.19 198.26 477.98 199.26 C 456.00 203.48 437.53 216.98 416.87 224.81 Z" />
<path fill="#030202" opacity="1.00" d=" M 823.39 243.80 C 830.10 239.54 836.83 234.51 844.92 233.39 C 849.37 232.67 853.82 234.09 857.59 236.40 C 860.79 247.30 858.72 258.70 859.27 269.84 C 856.64 271.65 852.56 274.13 849.91 271.00 C 846.28 266.11 846.35 259.66 844.81 253.99 C 844.19 251.19 843.03 247.27 839.34 247.86 C 840.11 253.33 842.47 258.45 843.22 263.92 C 843.06 269.93 842.53 276.23 839.57 281.59 C 837.04 286.29 831.42 289.36 826.10 288.30 C 820.82 287.46 816.12 284.37 812.67 280.37 C 807.07 273.96 803.58 266.07 798.69 259.15 C 802.57 254.35 806.54 249.61 810.44 244.81 C 812.95 245.70 815.64 247.08 816.44 249.87 C 818.47 256.41 815.71 263.48 818.05 269.97 C 818.72 272.12 820.53 273.53 822.19 274.92 C 824.91 273.55 827.47 271.27 827.56 267.98 C 827.94 259.66 822.67 252.18 823.39 243.80 Z" />
<path fill="#030202" opacity="1.00" d=" M 101.10 236.05 C 116.73 244.45 132.69 252.54 146.58 263.70 C 141.25 266.29 135.92 268.88 130.59 271.47 C 121.74 265.10 112.47 258.39 101.38 256.78 C 101.27 249.87 101.28 242.96 101.10 236.05 Z" />
<path fill="#030202" opacity="1.00" d=" M 77.67 282.52 C 81.55 272.50 91.42 264.16 102.58 264.81 C 97.60 274.40 92.13 283.72 86.58 293.00 C 95.18 286.15 101.57 275.65 112.75 272.74 C 116.42 272.20 121.62 271.35 123.65 275.35 C 129.54 284.56 127.88 296.07 129.21 306.44 C 120.08 309.87 110.98 313.39 101.85 316.83 C 107.21 305.98 113.76 295.77 119.27 284.99 C 108.73 291.03 101.37 302.48 89.00 305.15 C 85.34 306.52 82.18 303.57 79.86 301.12 C 75.32 296.12 75.25 288.51 77.67 282.52 Z" />
<path fill="#030202" opacity="1.00" d=" M 859.86 283.01 C 859.38 277.87 864.94 275.79 868.98 274.77 C 874.43 288.86 880.26 302.85 887.47 316.16 C 887.00 319.00 886.51 321.84 886.02 324.68 C 883.65 324.99 881.30 325.45 878.92 325.57 C 876.75 325.28 874.86 324.07 872.87 323.28 C 871.23 320.10 869.57 316.93 867.92 313.76 C 859.36 316.50 849.97 316.58 841.92 320.86 C 838.75 322.45 836.24 325.02 834.12 327.80 C 831.64 322.50 829.01 317.27 826.40 312.03 C 836.68 309.78 847.09 307.25 856.23 301.82 C 860.69 301.46 865.20 302.12 869.69 302.12 C 866.65 295.64 860.92 290.29 859.86 283.01 Z" />
<path fill="#030202" opacity="1.00" d=" M 60.68 339.90 C 59.64 326.96 68.53 314.90 80.01 309.69 C 78.10 319.50 75.76 329.22 73.39 338.93 C 79.55 331.07 84.40 320.81 94.48 317.34 C 98.16 315.63 102.15 317.56 105.08 319.85 C 108.63 322.77 110.15 327.39 110.62 331.82 C 111.25 338.15 110.60 344.50 110.46 350.84 C 102.17 354.78 93.91 358.79 85.63 362.77 C 90.83 352.35 96.69 342.22 100.79 331.29 C 90.89 339.91 81.58 349.16 72.03 358.15 C 65.94 353.98 61.14 347.44 60.68 339.90 Z" />
<path fill="#030202" opacity="1.00" d=" M 837.69 357.81 C 849.89 341.92 870.88 338.63 889.19 334.47 C 891.88 338.94 894.53 343.44 897.18 347.94 C 884.07 351.47 872.27 358.97 858.80 361.29 C 851.61 362.57 844.04 361.46 837.69 357.81 Z" />
<path fill="#030202" opacity="1.00" d=" M 888.44 365.41 C 891.83 358.36 897.69 352.78 900.57 345.44 C 902.49 351.43 903.59 357.71 903.72 364.00 C 902.08 379.30 909.39 393.89 908.08 409.18 C 904.12 409.82 900.16 410.50 896.21 411.15 C 896.91 405.12 897.67 399.10 898.37 393.07 C 890.64 393.40 882.71 393.74 875.42 396.55 C 868.34 399.47 860.95 401.49 853.73 403.98 C 853.29 398.11 852.80 392.24 852.35 386.37 C 863.98 383.78 875.55 380.88 887.06 377.80 C 886.26 373.64 886.52 369.24 888.44 365.41 Z" />
<path fill="#030202" opacity="1.00" d=" M 52.20 367.23 C 54.20 362.65 58.57 359.67 63.34 358.59 C 62.16 369.27 60.62 379.92 60.01 390.65 C 68.04 382.79 70.37 370.81 79.06 363.50 C 78.62 373.54 77.87 383.56 77.33 393.60 C 80.31 391.93 83.12 389.85 85.06 387.01 C 90.27 379.60 91.77 370.29 97.05 362.91 C 99.20 367.99 100.09 373.56 99.64 379.05 C 98.86 389.84 94.68 399.95 92.47 410.46 C 76.83 406.58 61.00 403.44 45.39 399.39 C 49.10 388.98 47.56 377.36 52.20 367.23 Z" />
<path fill="#030202" opacity="1.00" d=" M 46.13 411.33 C 55.13 413.33 63.86 416.63 71.74 421.44 C 78.68 418.03 85.59 414.54 92.57 411.20 C 93.15 416.45 92.63 422.05 89.61 426.53 C 85.89 432.32 79.92 436.10 74.03 439.37 C 68.68 435.84 63.51 431.41 57.02 430.27 C 52.31 429.43 47.93 432.54 45.65 436.47 C 59.06 442.26 73.59 445.59 88.23 445.40 C 87.70 450.77 87.16 456.15 86.59 461.52 C 70.67 458.88 54.59 457.32 38.63 454.99 C 39.46 440.22 41.44 425.40 46.13 411.33 Z" />
<path fill="#030202" opacity="1.00" d=" M 865.31 428.67 C 881.23 424.29 897.20 419.93 913.53 417.32 C 914.34 421.68 915.05 426.59 912.62 430.57 C 910.49 434.08 906.50 435.80 902.68 436.76 C 892.37 439.26 881.41 438.09 871.34 441.76 C 872.59 448.43 873.90 455.09 875.40 461.72 C 887.02 459.10 898.36 452.61 910.58 454.55 C 917.30 455.86 919.47 463.32 919.47 469.29 C 903.74 471.33 887.68 474.99 871.87 471.62 C 867.59 471.11 865.34 466.83 863.52 463.43 C 858.59 452.35 860.88 439.52 865.31 428.67 Z" />
<path fill="#030202" opacity="1.00" d=" M 63.00 467.99 C 67.37 464.96 73.18 466.18 77.57 468.54 C 82.19 470.96 85.17 475.74 86.12 480.78 C 87.88 489.81 85.96 498.97 84.48 507.89 C 78.69 511.14 73.14 514.79 67.60 518.45 C 60.35 518.36 53.14 516.58 46.04 515.12 C 42.05 514.78 39.84 510.91 38.47 507.59 C 35.92 500.15 37.86 492.22 38.82 484.68 C 43.21 480.64 47.69 476.70 52.10 472.70 C 48.69 479.51 46.29 487.39 47.96 495.03 C 48.80 499.13 52.03 502.66 56.18 503.52 C 61.06 504.38 66.82 505.33 70.93 501.80 C 77.09 496.84 77.61 487.15 73.06 480.93 C 70.03 484.76 67.05 488.62 64.07 492.49 C 61.41 491.59 58.88 489.94 57.85 487.21 C 55.23 480.68 57.13 472.15 63.00 467.99 Z" />
<path fill="#030202" opacity="1.00" d=" M 908.13 479.25 C 913.54 481.32 917.77 486.10 918.70 491.89 C 921.12 505.45 915.46 518.78 916.12 532.36 C 913.24 533.91 909.03 535.38 906.54 532.40 C 902.98 527.69 903.42 521.37 902.99 515.79 C 889.76 514.86 876.53 513.90 863.33 512.64 C 863.00 507.43 864.19 500.90 869.76 498.89 C 880.83 495.33 892.53 500.31 903.78 497.78 C 905.27 491.61 906.65 485.42 908.13 479.25 Z" />
<path fill="#030202" opacity="1.00" d=" M 59.58 526.81 C 65.75 525.94 72.22 524.72 78.30 526.73 C 81.79 527.84 84.54 530.61 86.01 533.92 C 89.83 541.79 93.05 550.92 90.39 559.66 C 88.38 564.99 85.31 570.42 80.05 573.11 C 72.12 577.27 62.35 576.23 54.45 572.53 C 47.32 569.21 40.90 562.98 39.64 554.94 C 38.81 546.06 40.70 535.89 48.28 530.26 C 51.36 527.39 55.67 527.36 59.58 526.81 M 61.40 540.61 C 58.04 541.75 55.61 544.55 53.09 546.93 C 50.45 549.56 50.73 554.04 53.28 556.64 C 58.05 561.87 66.88 564.14 73.04 560.04 C 76.38 557.12 80.92 553.09 79.03 548.14 C 76.20 541.73 67.93 538.73 61.40 540.61 Z" />
<path fill="#030202" opacity="1.00" d=" M 849.22 573.03 C 855.80 560.21 862.38 547.38 868.67 534.40 C 883.73 540.07 899.07 544.92 914.50 549.46 C 911.19 561.98 906.66 574.38 906.22 587.45 C 901.14 587.66 896.06 587.89 890.99 588.14 C 893.46 578.52 896.00 568.93 898.35 559.28 C 892.52 561.04 888.51 566.15 886.77 571.81 C 885.26 576.06 884.23 580.46 882.75 584.72 C 879.42 583.47 876.11 582.19 872.80 580.92 C 874.73 574.10 877.84 567.34 877.38 560.11 C 877.22 556.57 875.55 553.40 873.58 550.56 C 869.04 558.97 865.93 568.08 863.91 577.40 C 859.02 575.93 854.12 574.48 849.22 573.03 Z" />
<path fill="#030202" opacity="1.00" d=" M 77.62 588.22 C 81.86 583.21 86.09 578.17 90.34 573.17 C 93.25 578.42 96.14 583.67 99.00 588.95 C 92.95 594.29 87.35 600.12 82.25 606.37 C 89.38 606.63 96.86 605.51 103.68 608.17 C 107.36 609.55 110.02 612.62 111.97 615.94 C 95.86 622.84 79.51 629.13 63.32 635.84 C 58.87 621.87 49.73 608.19 53.05 592.92 C 60.78 589.56 69.20 588.04 77.62 588.22 M 71.16 618.68 C 74.36 617.03 76.92 613.72 76.99 610.02 C 76.99 607.11 75.50 604.55 74.11 602.11 C 70.31 601.72 66.51 601.29 62.72 600.84 C 58.33 607.50 63.16 617.95 71.16 618.68 Z" />
<path fill="#030202" opacity="1.00" d=" M 84.89 641.85 C 86.07 641.08 87.42 640.60 88.70 640.02 C 98.05 643.34 107.06 647.54 116.00 651.82 C 120.21 647.90 124.41 643.98 128.60 640.06 C 130.83 643.79 133.04 647.54 135.27 651.27 C 126.13 664.53 113.76 674.99 102.52 686.37 C 95.26 679.36 87.04 672.72 82.71 663.35 C 79.42 656.48 80.42 647.95 84.89 641.85 M 94.37 655.69 C 93.74 658.37 92.41 661.46 94.01 664.06 C 96.23 666.82 100.17 665.54 103.16 665.16 C 103.78 662.40 105.19 659.17 103.39 656.57 C 101.03 654.06 97.32 655.29 94.37 655.69 Z" />
<path fill="#030202" opacity="1.00" d=" M 248.42 801.80 C 250.73 803.07 253.57 804.25 254.45 807.01 C 255.19 811.03 251.48 813.67 248.93 816.09 C 246.47 814.70 243.15 813.22 242.98 809.98 C 242.98 806.41 246.10 804.05 248.42 801.80 Z" />
<path fill="#030202" opacity="1.00" d=" M 672.05 826.97 C 672.73 823.78 674.67 821.08 676.75 818.65 C 678.43 825.28 679.97 831.94 681.55 838.60 C 689.07 839.25 696.24 842.72 701.18 848.46 C 692.45 847.50 683.75 846.29 675.06 845.13 C 672.61 839.48 670.50 833.16 672.05 826.97 Z" />
<path fill="#030202" opacity="1.00" d=" M 256.26 820.60 C 261.73 821.82 267.16 823.28 272.49 825.04 C 270.77 831.03 266.91 836.46 261.33 839.41 C 253.77 843.57 244.96 844.37 236.51 844.99 C 239.47 842.46 241.41 837.83 245.84 837.86 C 248.89 837.41 251.95 836.97 255.00 836.52 C 255.42 831.21 255.83 825.91 256.26 820.60 Z" />
<path fill="#030202" opacity="1.00" d=" M 279.85 821.04 C 283.42 822.38 286.98 823.76 290.54 825.13 C 288.84 833.54 286.90 841.90 285.11 850.29 C 291.71 854.06 298.35 857.79 304.94 861.60 C 302.74 853.06 300.55 844.53 298.33 836.00 C 303.46 840.26 308.60 844.52 313.70 848.82 C 309.58 858.92 304.16 868.42 298.92 877.97 C 293.11 876.08 287.28 874.22 281.47 872.34 C 287.03 868.79 292.56 865.20 298.12 861.64 C 294.59 857.61 289.42 854.55 283.89 855.41 C 275.31 856.62 268.27 862.14 260.51 865.54 C 260.91 859.60 261.34 853.67 261.78 847.75 C 268.17 846.75 274.55 845.66 280.91 844.52 C 280.65 836.69 280.18 828.87 279.85 821.04 Z" />
<path fill="#030202" opacity="1.00" d=" M 660.00 834.79 C 661.05 840.84 661.97 846.92 663.05 852.98 C 663.11 854.55 664.47 855.49 665.45 856.56 C 669.90 860.95 674.37 865.34 678.61 869.95 C 668.47 869.41 658.50 865.53 648.28 867.31 C 647.63 866.89 646.98 866.48 646.34 866.09 C 650.72 864.86 654.19 861.64 658.17 859.52 C 654.85 855.88 651.21 852.54 647.88 848.92 C 651.92 844.21 655.92 839.46 660.00 834.79 Z" />
<path fill="#030202" opacity="1.00" d=" M 629.41 854.77 C 633.48 851.85 637.53 848.91 641.61 846.01 C 640.06 854.91 638.45 863.80 636.87 872.70 C 639.69 871.01 642.51 869.32 645.15 867.36 C 645.80 868.20 646.64 868.94 647.00 870.01 C 649.38 876.07 651.53 882.22 653.78 888.33 C 644.08 884.68 634.42 880.91 624.64 877.47 C 630.78 871.59 630.81 862.55 629.41 854.77 Z" />
<path fill="#030202" opacity="1.00" d=" M 321.24 849.20 C 330.07 846.03 339.81 858.54 334.22 866.17 C 328.31 869.75 321.25 864.56 319.16 858.88 C 317.96 855.78 317.58 850.73 321.24 849.20 Z" />
<path fill="#030202" opacity="1.00" d=" M 571.97 853.24 C 576.94 853.58 581.92 853.94 586.89 854.31 C 589.01 858.11 590.57 862.53 589.51 866.92 C 588.27 872.73 583.70 876.97 579.26 880.54 C 584.22 880.88 589.18 881.24 594.14 881.63 C 596.55 889.29 598.84 897.00 601.30 904.66 C 593.36 903.48 584.92 909.67 577.49 904.74 C 577.95 887.40 575.37 870.19 571.97 853.24 Z" />
<path fill="#030202" opacity="1.00" d=" M 348.67 856.99 C 356.15 859.08 363.63 861.20 371.11 863.30 C 366.87 875.34 363.89 887.76 360.90 900.16 C 354.58 899.86 348.26 899.49 341.94 899.16 C 344.87 889.28 354.48 883.92 363.32 880.13 C 358.40 872.44 353.49 864.74 348.67 856.99 Z" />
<path fill="#030202" opacity="1.00" d=" M 603.46 858.01 C 608.06 857.94 612.66 858.15 617.27 858.15 C 615.06 865.76 611.45 873.07 611.13 881.11 C 619.89 883.70 628.74 885.92 637.62 888.05 C 630.06 891.93 622.37 895.56 614.79 899.39 C 614.30 900.97 613.81 902.57 613.32 904.16 C 612.60 903.99 611.16 903.64 610.43 903.47 C 610.99 901.88 611.56 900.32 612.13 898.76 C 608.38 886.46 604.31 874.26 600.30 862.05 C 601.35 860.70 602.41 859.35 603.46 858.01 Z" />
<path fill="#030202" opacity="1.00" d=" M 403.74 863.35 C 416.85 863.87 429.90 865.28 442.87 867.22 C 442.33 878.49 439.55 889.48 437.08 900.44 C 430.13 899.51 423.20 898.44 416.23 897.62 C 417.23 903.75 418.27 909.87 419.28 916.00 C 414.72 916.66 410.15 917.29 405.59 917.93 C 404.13 899.78 404.13 881.55 403.74 863.35 M 410.96 874.30 C 410.98 879.26 411.30 884.22 412.13 889.12 C 418.82 890.47 425.74 890.38 432.39 888.86 C 432.79 884.45 433.18 880.04 433.57 875.63 C 426.03 875.14 418.50 874.62 410.96 874.30 Z" />
<path fill="#030202" opacity="1.00" d=" M 528.78 863.54 C 534.05 864.54 538.78 868.17 540.35 873.41 C 544.20 885.57 540.34 898.46 542.47 910.85 C 539.80 913.41 537.12 915.96 534.45 918.52 C 532.57 900.19 530.74 881.86 528.78 863.54 Z" />
<path fill="#030202" opacity="1.00" d=" M 465.45 872.14 C 478.35 871.89 491.20 873.20 504.08 873.65 C 503.52 876.53 503.57 879.60 502.50 882.35 C 499.56 884.32 495.78 884.35 492.49 883.39 C 487.64 881.98 483.06 879.64 478.01 879.00 C 474.52 886.10 472.55 893.80 470.93 901.51 C 476.95 902.29 482.98 902.96 489.01 903.74 C 492.02 899.40 497.89 899.73 502.36 897.86 C 502.30 904.51 502.49 911.18 504.83 917.51 C 492.05 916.58 479.16 915.54 466.37 917.11 C 466.64 914.75 466.78 912.39 466.59 910.04 C 465.65 897.43 465.13 884.78 465.45 872.14 Z" />
<path fill="#030202" opacity="1.00" d=" M 319.42 878.74 C 321.64 877.72 324.64 877.60 326.33 879.66 C 329.26 883.53 326.90 889.58 322.55 891.25 C 319.41 892.55 315.90 894.76 312.45 893.19 C 308.63 891.41 308.20 885.78 310.86 882.84 C 312.93 880.18 316.52 879.97 319.42 878.74 Z" />
</g>
<g id="#e4e3e3ff">
<path fill="#e4e3e3" opacity="1.00" d=" M 448.64 8.88 C 538.24 3.32 629.37 24.05 707.43 68.48 C 772.75 105.39 828.93 158.32 869.57 221.40 C 904.83 275.92 928.34 337.99 937.89 402.22 C 947.44 466.12 943.57 532.02 926.25 594.28 C 903.52 676.69 856.99 752.20 794.14 810.07 C 726.53 872.70 639.96 914.52 548.82 928.32 C 479.70 938.91 408.21 934.11 341.26 913.85 C 270.37 892.53 204.78 853.91 151.67 802.34 C 97.57 750.09 56.42 684.48 33.30 612.88 C 18.37 566.83 10.83 518.39 11.01 469.98 C 10.96 393.31 30.59 316.73 67.59 249.57 C 109.23 173.53 172.70 109.70 248.38 67.44 C 309.55 33.08 378.60 12.95 448.64 8.88 M 408.07 26.91 C 409.88 42.54 410.56 58.27 412.17 73.91 C 415.58 75.80 420.70 77.08 423.33 73.28 C 427.47 67.14 427.31 59.36 429.08 52.39 C 433.42 55.88 438.37 58.79 441.79 63.27 C 444.09 66.19 444.77 70.00 444.45 73.64 C 448.99 72.16 453.55 70.73 458.12 69.32 C 455.03 62.37 450.75 56.05 446.66 49.67 C 449.07 45.38 451.39 41.02 453.75 36.70 C 450.26 31.62 445.22 27.50 439.23 25.80 C 429.00 22.83 418.28 25.08 408.07 26.91 M 467.45 24.65 C 466.50 40.98 466.29 57.35 466.62 73.70 C 476.81 74.29 486.99 74.90 497.17 75.53 C 496.67 73.85 496.16 72.16 495.66 70.48 C 492.22 69.86 488.77 69.25 485.33 68.65 C 482.69 65.52 480.02 62.41 477.38 59.27 C 483.56 58.23 489.76 57.25 495.94 56.18 C 496.17 55.70 496.64 54.76 496.88 54.29 C 491.90 54.35 486.74 54.24 482.13 52.15 C 477.15 50.16 473.45 45.91 471.34 41.06 C 480.40 39.54 490.13 40.73 498.61 36.61 C 502.86 34.63 505.54 30.44 506.60 25.98 C 493.55 25.52 480.50 25.08 467.45 24.65 M 522.57 29.59 C 516.79 45.10 513.75 61.57 513.21 78.10 C 527.87 79.97 542.62 81.69 557.43 81.34 C 555.93 78.13 553.77 75.13 550.66 73.33 C 542.63 68.60 532.59 69.01 524.80 63.72 C 534.69 60.14 545.33 60.13 555.69 59.55 C 554.94 56.64 553.58 53.57 550.63 52.31 C 545.00 49.85 538.63 50.87 532.77 49.34 C 532.50 46.87 532.20 44.40 531.94 41.93 C 540.49 42.35 549.04 42.86 557.60 43.30 C 557.22 40.38 556.84 37.46 556.47 34.54 C 545.12 33.22 533.82 31.59 522.57 29.59 M 365.07 40.93 C 361.43 57.87 361.49 75.32 362.03 92.55 C 368.64 86.58 375.25 79.97 383.92 77.14 C 389.52 75.23 395.61 76.14 401.01 78.26 C 401.79 71.45 399.21 64.73 394.61 59.75 C 395.52 58.67 396.44 57.59 397.37 56.52 C 389.47 52.57 385.91 43.97 379.61 38.25 C 377.14 35.93 373.41 34.61 370.17 36.08 C 368.07 37.08 365.26 38.25 365.07 40.93 M 575.73 35.84 C 570.47 51.47 565.93 67.33 562.10 83.37 C 566.12 84.47 570.14 85.56 574.17 86.67 C 576.67 80.95 579.01 75.15 581.64 69.50 C 582.12 69.41 583.08 69.23 583.56 69.14 C 579.03 67.56 578.82 61.08 582.37 58.39 C 587.04 54.63 594.49 57.85 596.53 63.06 C 598.05 66.88 594.99 71.16 591.14 71.81 C 588.31 72.53 585.61 71.14 583.17 69.91 C 587.18 77.39 590.99 84.98 595.40 92.23 C 596.23 83.34 600.23 74.74 606.72 68.57 C 608.11 67.99 609.72 67.94 611.06 67.21 C 612.83 63.21 613.66 58.57 612.47 54.29 C 611.04 49.60 606.82 46.46 602.57 44.46 C 594.03 40.43 584.56 39.07 575.73 35.84 M 318.88 57.96 C 313.73 60.56 308.72 63.57 304.10 67.02 C 303.32 72.33 303.05 77.70 302.39 83.03 C 302.29 84.77 301.73 86.68 302.71 88.28 C 305.12 93.19 307.52 98.11 309.94 103.02 C 321.99 109.37 338.43 106.87 347.14 96.11 C 352.30 89.94 353.33 81.23 351.12 73.66 C 342.18 77.84 337.04 86.60 330.53 93.55 C 329.49 94.81 328.05 95.59 326.57 96.19 C 323.27 91.35 317.63 88.31 315.50 82.67 C 313.90 78.78 316.19 74.56 319.35 72.26 C 325.13 67.91 332.37 66.13 339.40 65.11 C 337.97 61.70 336.18 58.01 332.63 56.38 C 328.14 54.37 323.08 55.99 318.88 57.96 M 620.07 68.39 C 624.07 77.94 628.75 87.22 634.21 96.02 C 632.51 97.84 630.81 99.66 629.11 101.47 C 625.83 95.87 624.16 89.22 619.49 84.53 C 617.06 81.99 613.50 81.17 610.10 81.15 C 608.60 85.03 608.23 89.37 609.70 93.32 C 612.78 101.85 620.34 108.39 628.88 111.11 C 634.61 112.95 641.49 112.30 645.94 107.95 C 649.95 104.62 649.89 98.69 648.91 94.01 C 646.70 85.04 640.23 78.06 636.18 69.94 C 643.80 76.81 649.51 86.95 660.26 89.31 C 663.34 75.99 652.09 63.01 639.16 61.30 C 632.06 60.02 624.70 62.95 620.07 68.39 M 458.59 96.89 C 398.06 100.16 338.62 119.92 287.93 153.11 C 227.32 192.54 179.27 250.56 150.76 316.93 C 124.85 376.76 114.95 443.25 121.35 508.08 C 128.45 582.01 157.61 653.76 204.71 711.25 C 248.45 765.00 307.78 806.20 374.00 826.96 C 416.83 840.50 462.31 845.49 507.06 841.77 C 567.22 836.94 625.85 815.76 675.53 781.55 C 722.88 749.11 762.22 705.22 789.84 654.94 C 821.91 596.87 838.12 530.29 837.01 464.00 C 836.17 388.34 812.46 312.99 769.09 250.92 C 727.91 191.53 668.92 144.37 601.20 118.81 C 555.91 101.56 506.97 94.14 458.59 96.89 M 769.38 169.33 C 763.54 177.44 754.78 182.88 749.15 191.14 C 746.70 194.54 745.92 198.75 746.24 202.87 C 749.41 204.00 752.61 205.03 755.82 206.07 C 774.14 191.52 786.78 170.73 806.76 158.11 C 802.85 158.17 798.95 158.10 795.06 157.98 C 794.73 154.15 794.39 150.32 794.07 146.50 C 787.78 155.92 779.57 164.21 769.38 169.33 M 177.13 156.14 C 174.42 157.71 173.08 160.77 170.48 162.45 C 164.25 166.10 157.83 169.41 151.48 172.83 C 160.34 186.08 169.10 199.40 178.06 212.59 C 184.39 209.79 190.76 207.08 197.16 204.43 C 198.37 204.00 199.43 203.25 200.13 202.15 C 204.73 195.78 209.00 189.18 213.02 182.44 C 200.93 186.63 189.00 191.27 176.78 195.10 C 184.52 186.09 192.69 177.47 200.30 168.36 C 189.47 171.54 178.73 175.03 167.89 178.17 C 175.97 170.27 184.27 162.60 192.36 154.70 C 187.36 153.21 181.58 153.03 177.13 156.14 M 796.38 180.32 C 784.97 188.80 779.11 202.46 768.56 211.83 C 772.50 214.85 776.43 217.90 780.37 220.94 C 786.59 214.56 792.89 208.26 799.06 201.84 C 797.55 214.26 796.09 226.68 794.85 239.13 C 799.33 241.17 804.29 240.08 809.03 240.23 C 812.84 234.81 816.56 229.34 820.39 223.94 C 820.99 225.09 821.61 226.25 822.24 227.41 C 828.08 221.85 833.94 216.32 839.96 210.96 C 841.88 209.78 841.10 207.35 841.29 205.49 C 842.35 204.99 843.42 204.50 844.49 204.00 C 843.59 202.65 842.69 201.30 841.82 199.95 C 840.24 199.76 838.62 199.37 837.07 199.88 C 827.31 202.31 820.72 212.59 810.03 212.07 C 809.26 203.72 813.12 196.09 815.26 188.25 C 816.55 184.50 814.73 180.73 814.11 177.04 C 808.06 175.36 801.40 176.50 796.38 180.32 M 132.91 198.88 C 135.70 209.11 143.83 216.63 147.92 226.26 C 140.50 222.64 133.30 218.57 125.83 215.08 C 120.95 214.38 115.98 214.51 111.06 214.10 C 109.66 215.18 108.25 216.25 106.85 217.34 C 108.05 222.06 110.87 226.41 115.18 228.84 C 123.81 233.87 134.23 233.90 143.22 238.04 C 142.89 238.40 142.22 239.11 141.88 239.47 C 143.13 240.76 144.39 242.05 145.63 243.35 C 154.53 242.71 162.66 237.19 166.29 229.01 C 157.96 212.71 147.56 197.59 136.76 182.85 C 133.27 187.33 131.27 193.25 132.91 198.88 M 823.39 243.80 C 822.67 252.18 827.94 259.66 827.56 267.98 C 827.47 271.27 824.91 273.55 822.19 274.92 C 820.53 273.53 818.72 272.12 818.05 269.97 C 815.71 263.48 818.47 256.41 816.44 249.87 C 815.64 247.08 812.95 245.70 810.44 244.81 C 806.54 249.61 802.57 254.35 798.69 259.15 C 803.58 266.07 807.07 273.96 812.67 280.37 C 816.12 284.37 820.82 287.46 826.10 288.30 C 831.42 289.36 837.04 286.29 839.57 281.59 C 842.53 276.23 843.06 269.93 843.22 263.92 C 842.47 258.45 840.11 253.33 839.34 247.86 C 843.03 247.27 844.19 251.19 844.81 253.99 C 846.35 259.66 846.28 266.11 849.91 271.00 C 852.56 274.13 856.64 271.65 859.27 269.84 C 858.72 258.70 860.79 247.30 857.59 236.40 C 853.82 234.09 849.37 232.67 844.92 233.39 C 836.83 234.51 830.10 239.54 823.39 243.80 M 101.10 236.05 C 101.28 242.96 101.27 249.87 101.38 256.78 C 112.47 258.39 121.74 265.10 130.59 271.47 C 135.92 268.88 141.25 266.29 146.58 263.70 C 132.69 252.54 116.73 244.45 101.10 236.05 M 77.67 282.52 C 75.25 288.51 75.32 296.12 79.86 301.12 C 82.18 303.57 85.34 306.52 89.00 305.15 C 101.37 302.48 108.73 291.03 119.27 284.99 C 113.76 295.77 107.21 305.98 101.85 316.83 C 110.98 313.39 120.08 309.87 129.21 306.44 C 127.88 296.07 129.54 284.56 123.65 275.35 C 121.62 271.35 116.42 272.20 112.75 272.74 C 101.57 275.65 95.18 286.15 86.58 293.00 C 92.13 283.72 97.60 274.40 102.58 264.81 C 91.42 264.16 81.55 272.50 77.67 282.52 M 859.86 283.01 C 860.92 290.29 866.65 295.64 869.69 302.12 C 865.20 302.12 860.69 301.46 856.23 301.82 C 847.09 307.25 836.68 309.78 826.40 312.03 C 829.01 317.27 831.64 322.50 834.12 327.80 C 836.24 325.02 838.75 322.45 841.92 320.86 C 849.97 316.58 859.36 316.50 867.92 313.76 C 869.57 316.93 871.23 320.10 872.87 323.28 C 874.86 324.07 876.75 325.28 878.92 325.57 C 881.30 325.45 883.65 324.99 886.02 324.68 C 886.51 321.84 887.00 319.00 887.47 316.16 C 880.26 302.85 874.43 288.86 868.98 274.77 C 864.94 275.79 859.38 277.87 859.86 283.01 M 60.68 339.90 C 61.14 347.44 65.94 353.98 72.03 358.15 C 81.58 349.16 90.89 339.91 100.79 331.29 C 96.69 342.22 90.83 352.35 85.63 362.77 C 93.91 358.79 102.17 354.78 110.46 350.84 C 110.60 344.50 111.25 338.15 110.62 331.82 C 110.15 327.39 108.63 322.77 105.08 319.85 C 102.15 317.56 98.16 315.63 94.48 317.34 C 84.40 320.81 79.55 331.07 73.39 338.93 C 75.76 329.22 78.10 319.50 80.01 309.69 C 68.53 314.90 59.64 326.96 60.68 339.90 M 837.69 357.81 C 844.04 361.46 851.61 362.57 858.80 361.29 C 872.27 358.97 884.07 351.47 897.18 347.94 C 894.53 343.44 891.88 338.94 889.19 334.47 C 870.88 338.63 849.89 341.92 837.69 357.81 M 888.44 365.41 C 886.52 369.24 886.26 373.64 887.06 377.80 C 875.55 380.88 863.98 383.78 852.35 386.37 C 852.80 392.24 853.29 398.11 853.73 403.98 C 860.95 401.49 868.34 399.47 875.42 396.55 C 882.71 393.74 890.64 393.40 898.37 393.07 C 897.67 399.10 896.91 405.12 896.21 411.15 C 900.16 410.50 904.12 409.82 908.08 409.18 C 909.39 393.89 902.08 379.30 903.72 364.00 C 903.59 357.71 902.49 351.43 900.57 345.44 C 897.69 352.78 891.83 358.36 888.44 365.41 M 52.20 367.23 C 47.56 377.36 49.10 388.98 45.39 399.39 C 61.00 403.44 76.83 406.58 92.47 410.46 C 94.68 399.95 98.86 389.84 99.64 379.05 C 100.09 373.56 99.20 367.99 97.05 362.91 C 91.77 370.29 90.27 379.60 85.06 387.01 C 83.12 389.85 80.31 391.93 77.33 393.60 C 77.87 383.56 78.62 373.54 79.06 363.50 C 70.37 370.81 68.04 382.79 60.01 390.65 C 60.62 379.92 62.16 369.27 63.34 358.59 C 58.57 359.67 54.20 362.65 52.20 367.23 M 46.13 411.33 C 41.44 425.40 39.46 440.22 38.63 454.99 C 54.59 457.32 70.67 458.88 86.59 461.52 C 87.16 456.15 87.70 450.77 88.23 445.40 C 73.59 445.59 59.06 442.26 45.65 436.47 C 47.93 432.54 52.31 429.43 57.02 430.27 C 63.51 431.41 68.68 435.84 74.03 439.37 C 79.92 436.10 85.89 432.32 89.61 426.53 C 92.63 422.05 93.15 416.45 92.57 411.20 C 85.59 414.54 78.68 418.03 71.74 421.44 C 63.86 416.63 55.13 413.33 46.13 411.33 M 865.31 428.67 C 860.88 439.52 858.59 452.35 863.52 463.43 C 865.34 466.83 867.59 471.11 871.87 471.62 C 887.68 474.99 903.74 471.33 919.47 469.29 C 919.47 463.32 917.30 455.86 910.58 454.55 C 898.36 452.61 887.02 459.10 875.40 461.72 C 873.90 455.09 872.59 448.43 871.34 441.76 C 881.41 438.09 892.37 439.26 902.68 436.76 C 906.50 435.80 910.49 434.08 912.62 430.57 C 915.05 426.59 914.34 421.68 913.53 417.32 C 897.20 419.93 881.23 424.29 865.31 428.67 M 63.00 467.99 C 57.13 472.15 55.23 480.68 57.85 487.21 C 58.88 489.94 61.41 491.59 64.07 492.49 C 67.05 488.62 70.03 484.76 73.06 480.93 C 77.61 487.15 77.09 496.84 70.93 501.80 C 66.82 505.33 61.06 504.38 56.18 503.52 C 52.03 502.66 48.80 499.13 47.96 495.03 C 46.29 487.39 48.69 479.51 52.10 472.70 C 47.69 476.70 43.21 480.64 38.82 484.68 C 37.86 492.22 35.92 500.15 38.47 507.59 C 39.84 510.91 42.05 514.78 46.04 515.12 C 53.14 516.58 60.35 518.36 67.60 518.45 C 73.14 514.79 78.69 511.14 84.48 507.89 C 85.96 498.97 87.88 489.81 86.12 480.78 C 85.17 475.74 82.19 470.96 77.57 468.54 C 73.18 466.18 67.37 464.96 63.00 467.99 M 908.13 479.25 C 906.65 485.42 905.27 491.61 903.78 497.78 C 892.53 500.31 880.83 495.33 869.76 498.89 C 864.19 500.90 863.00 507.43 863.33 512.64 C 876.53 513.90 889.76 514.86 902.99 515.79 C 903.42 521.37 902.98 527.69 906.54 532.40 C 909.03 535.38 913.24 533.91 916.12 532.36 C 915.46 518.78 921.12 505.45 918.70 491.89 C 917.77 486.10 913.54 481.32 908.13 479.25 M 59.58 526.81 C 55.67 527.36 51.36 527.39 48.28 530.26 C 40.70 535.89 38.81 546.06 39.64 554.94 C 40.90 562.98 47.32 569.21 54.45 572.53 C 62.35 576.23 72.12 577.27 80.05 573.11 C 85.31 570.42 88.38 564.99 90.39 559.66 C 93.05 550.92 89.83 541.79 86.01 533.92 C 84.54 530.61 81.79 527.84 78.30 526.73 C 72.22 524.72 65.75 525.94 59.58 526.81 M 849.22 573.03 C 854.12 574.48 859.02 575.93 863.91 577.40 C 865.93 568.08 869.04 558.97 873.58 550.56 C 875.55 553.40 877.22 556.57 877.38 560.11 C 877.84 567.34 874.73 574.10 872.80 580.92 C 876.11 582.19 879.42 583.47 882.75 584.72 C 884.23 580.46 885.26 576.06 886.77 571.81 C 888.51 566.15 892.52 561.04 898.35 559.28 C 896.00 568.93 893.46 578.52 890.99 588.14 C 896.06 587.89 901.14 587.66 906.22 587.45 C 906.66 574.38 911.19 561.98 914.50 549.46 C 899.07 544.92 883.73 540.07 868.67 534.40 C 862.38 547.38 855.80 560.21 849.22 573.03 M 77.62 588.22 C 69.20 588.04 60.78 589.56 53.05 592.92 C 49.73 608.19 58.87 621.87 63.32 635.84 C 79.51 629.13 95.86 622.84 111.97 615.94 C 110.02 612.62 107.36 609.55 103.68 608.17 C 96.86 605.51 89.38 606.63 82.25 606.37 C 87.35 600.12 92.95 594.29 99.00 588.95 C 96.14 583.67 93.25 578.42 90.34 573.17 C 86.09 578.17 81.86 583.21 77.62 588.22 M 84.89 641.85 C 80.42 647.95 79.42 656.48 82.71 663.35 C 87.04 672.72 95.26 679.36 102.52 686.37 C 113.76 674.99 126.13 664.53 135.27 651.27 C 133.04 647.54 130.83 643.79 128.60 640.06 C 124.41 643.98 120.21 647.90 116.00 651.82 C 107.06 647.54 98.05 643.34 88.70 640.02 C 87.42 640.60 86.07 641.08 84.89 641.85 M 248.42 801.80 C 246.10 804.05 242.98 806.41 242.98 809.98 C 243.15 813.22 246.47 814.70 248.93 816.09 C 251.48 813.67 255.19 811.03 254.45 807.01 C 253.57 804.25 250.73 803.07 248.42 801.80 M 672.05 826.97 C 670.50 833.16 672.61 839.48 675.06 845.13 C 683.75 846.29 692.45 847.50 701.18 848.46 C 696.24 842.72 689.07 839.25 681.55 838.60 C 679.97 831.94 678.43 825.28 676.75 818.65 C 674.67 821.08 672.73 823.78 672.05 826.97 M 256.26 820.60 C 255.83 825.91 255.42 831.21 255.00 836.52 C 251.95 836.97 248.89 837.41 245.84 837.86 C 241.41 837.83 239.47 842.46 236.51 844.99 C 244.96 844.37 253.77 843.57 261.33 839.41 C 266.91 836.46 270.77 831.03 272.49 825.04 C 267.16 823.28 261.73 821.82 256.26 820.60 M 279.85 821.04 C 280.18 828.87 280.65 836.69 280.91 844.52 C 274.55 845.66 268.17 846.75 261.78 847.75 C 261.34 853.67 260.91 859.60 260.51 865.54 C 268.27 862.14 275.31 856.62 283.89 855.41 C 289.42 854.55 294.59 857.61 298.12 861.64 C 292.56 865.20 287.03 868.79 281.47 872.34 C 287.28 874.22 293.11 876.08 298.92 877.97 C 304.16 868.42 309.58 858.92 313.70 848.82 C 308.60 844.52 303.46 840.26 298.33 836.00 C 300.55 844.53 302.74 853.06 304.94 861.60 C 298.35 857.79 291.71 854.06 285.11 850.29 C 286.90 841.90 288.84 833.54 290.54 825.13 C 286.98 823.76 283.42 822.38 279.85 821.04 M 660.00 834.79 C 655.92 839.46 651.92 844.21 647.88 848.92 C 651.21 852.54 654.85 855.88 658.17 859.52 C 654.19 861.64 650.72 864.86 646.34 866.09 C 646.98 866.48 647.63 866.89 648.28 867.31 C 658.50 865.53 668.47 869.41 678.61 869.95 C 674.37 865.34 669.90 860.95 665.45 856.56 C 664.47 855.49 663.11 854.55 663.05 852.98 C 661.97 846.92 661.05 840.84 660.00 834.79 M 629.41 854.77 C 630.81 862.55 630.78 871.59 624.64 877.47 C 634.42 880.91 644.08 884.68 653.78 888.33 C 651.53 882.22 649.38 876.07 647.00 870.01 C 646.64 868.94 645.80 868.20 645.15 867.36 C 642.51 869.32 639.69 871.01 636.87 872.70 C 638.45 863.80 640.06 854.91 641.61 846.01 C 637.53 848.91 633.48 851.85 629.41 854.77 M 321.24 849.20 C 317.58 850.73 317.96 855.78 319.16 858.88 C 321.25 864.56 328.31 869.75 334.22 866.17 C 339.81 858.54 330.07 846.03 321.24 849.20 M 571.97 853.24 C 575.37 870.19 577.95 887.40 577.49 904.74 C 584.92 909.67 593.36 903.48 601.30 904.66 C 598.84 897.00 596.55 889.29 594.14 881.63 C 589.18 881.24 584.22 880.88 579.26 880.54 C 583.70 876.97 588.27 872.73 589.51 866.92 C 590.57 862.53 589.01 858.11 586.89 854.31 C 581.92 853.94 576.94 853.58 571.97 853.24 M 348.67 856.99 C 353.49 864.74 358.40 872.44 363.32 880.13 C 354.48 883.92 344.87 889.28 341.94 899.16 C 348.26 899.49 354.58 899.86 360.90 900.16 C 363.89 887.76 366.87 875.34 371.11 863.30 C 363.63 861.20 356.15 859.08 348.67 856.99 M 603.46 858.01 C 602.41 859.35 601.35 860.70 600.30 862.05 C 604.31 874.26 608.38 886.46 612.13 898.76 C 611.56 900.32 610.99 901.88 610.43 903.47 C 611.16 903.64 612.60 903.99 613.32 904.16 C 613.81 902.57 614.30 900.97 614.79 899.39 C 622.37 895.56 630.06 891.93 637.62 888.05 C 628.74 885.92 619.89 883.70 611.13 881.11 C 611.45 873.07 615.06 865.76 617.27 858.15 C 612.66 858.15 608.06 857.94 603.46 858.01 M 403.74 863.35 C 404.13 881.55 404.13 899.78 405.59 917.93 C 410.15 917.29 414.72 916.66 419.28 916.00 C 418.27 909.87 417.23 903.75 416.23 897.62 C 423.20 898.44 430.13 899.51 437.08 900.44 C 439.55 889.48 442.33 878.49 442.87 867.22 C 429.90 865.28 416.85 863.87 403.74 863.35 M 528.78 863.54 C 530.74 881.86 532.57 900.19 534.45 918.52 C 537.12 915.96 539.80 913.41 542.47 910.85 C 540.34 898.46 544.20 885.57 540.35 873.41 C 538.78 868.17 534.05 864.54 528.78 863.54 M 465.45 872.14 C 465.13 884.78 465.65 897.43 466.59 910.04 C 466.78 912.39 466.64 914.75 466.37 917.11 C 479.16 915.54 492.05 916.58 504.83 917.51 C 502.49 911.18 502.30 904.51 502.36 897.86 C 497.89 899.73 492.02 899.40 489.01 903.74 C 482.98 902.96 476.95 902.29 470.93 901.51 C 472.55 893.80 474.52 886.10 478.01 879.00 C 483.06 879.64 487.64 881.98 492.49 883.39 C 495.78 884.35 499.56 884.32 502.50 882.35 C 503.57 879.60 503.52 876.53 504.08 873.65 C 491.20 873.20 478.35 871.89 465.45 872.14 M 319.42 878.74 C 316.52 879.97 312.93 880.18 310.86 882.84 C 308.20 885.78 308.63 891.41 312.45 893.19 C 315.90 894.76 319.41 892.55 322.55 891.25 C 326.90 889.58 329.26 883.53 326.33 879.66 C 324.64 877.60 321.64 877.72 319.42 878.74 Z" />
<path fill="#e4e3e3" opacity="1.00" d=" M 426.22 32.20 C 431.10 30.13 439.25 32.91 438.98 39.03 C 437.64 46.85 426.15 48.15 421.89 42.14 C 419.67 38.49 422.72 33.74 426.22 32.20 Z" />
<path fill="#e4e3e3" opacity="1.00" d=" M 381.26 60.26 C 383.96 60.59 388.54 60.33 388.99 63.89 C 387.78 66.91 384.03 69.45 380.77 68.34 C 378.41 66.16 380.73 62.77 381.26 60.26 Z" />
<path fill="#e4e3e3" opacity="1.00" d=" M 432.36 281.45 C 441.09 276.36 453.72 281.11 457.37 290.41 C 459.15 294.90 456.90 299.61 453.91 302.95 C 450.96 306.30 449.76 311.63 452.56 315.43 C 456.80 321.21 464.11 323.52 470.86 324.77 C 468.12 328.75 465.70 332.96 462.76 336.79 C 459.80 338.19 456.27 337.17 453.98 335.00 C 449.79 331.16 447.23 325.84 442.76 322.25 C 434.25 314.45 423.41 307.33 421.00 295.19 C 413.37 298.97 405.75 302.77 398.09 306.51 C 409.77 314.30 422.97 319.66 434.02 328.42 C 430.08 329.68 426.14 330.94 422.21 332.24 C 421.36 331.28 420.49 330.34 419.66 329.37 C 412.97 327.82 406.07 330.61 401.87 335.91 C 403.33 332.29 404.64 328.61 405.97 324.94 C 399.81 322.93 393.04 324.28 387.88 328.12 C 379.87 324.74 371.54 321.42 362.69 321.55 C 387.17 310.43 408.22 293.21 432.36 281.45 Z" />
<path fill="#e4e3e3" opacity="1.00" d=" M 474.41 281.64 C 476.46 280.95 478.76 280.35 480.89 281.14 C 486.78 283.22 488.41 292.49 483.17 296.14 C 480.09 297.78 476.00 299.31 472.77 297.21 C 467.33 293.62 467.98 283.78 474.41 281.64 Z" />
<path fill="#e4e3e3" opacity="1.00" d=" M 502.84 288.80 C 506.00 282.95 513.62 280.53 519.92 281.78 C 528.92 283.50 536.46 289.10 543.87 294.15 C 561.16 306.77 580.04 317.11 596.72 330.58 C 582.28 329.23 569.01 322.20 558.00 313.05 C 556.54 315.29 555.08 317.54 553.61 319.78 C 559.50 324.99 565.46 330.12 571.35 335.33 C 562.31 331.03 554.05 325.30 545.99 319.41 C 548.25 316.75 550.65 313.66 550.26 309.94 C 549.77 304.47 545.13 300.81 541.23 297.52 C 539.69 303.65 536.43 309.43 531.36 313.30 C 527.10 316.76 521.96 318.87 516.78 320.51 C 513.60 327.48 507.73 333.81 499.95 335.30 C 493.47 336.70 486.93 333.95 482.01 329.86 C 481.88 346.33 480.94 362.84 478.31 379.12 C 470.51 358.92 474.64 337.01 474.73 316.00 C 473.95 310.58 478.12 306.47 480.18 301.86 C 481.28 311.26 482.32 320.68 483.43 330.08 C 491.20 325.57 498.90 320.96 506.66 316.43 C 508.51 306.81 499.28 298.36 502.84 288.80 Z" />
<path fill="#e4e3e3" opacity="1.00" d=" M 430.24 333.97 C 435.66 332.69 441.26 335.01 444.53 339.43 C 449.32 345.27 453.35 353.77 462.03 354.04 C 456.49 358.91 451.19 364.06 446.13 369.43 C 462.20 381.75 483.72 384.39 499.00 397.94 C 503.78 401.83 507.12 407.78 506.70 414.07 C 506.00 425.51 497.11 435.78 486.08 438.63 C 487.54 430.76 492.44 424.01 493.65 416.08 C 494.40 411.84 492.87 407.28 489.38 404.67 C 477.02 394.82 461.52 389.81 449.41 379.58 C 445.70 376.50 442.55 372.81 439.86 368.82 C 443.04 362.90 446.27 357.02 449.50 351.13 C 440.67 349.06 433.34 342.47 430.24 333.97 Z" />
<path fill="#e4e3e3" opacity="1.00" d=" M 508.46 345.11 C 511.52 342.48 513.23 337.03 517.99 337.52 C 520.60 337.28 523.93 338.99 523.27 342.08 C 522.43 346.54 518.68 350.87 514.02 351.38 C 510.66 351.33 509.39 347.74 508.46 345.11 Z" />
<path fill="#e4e3e3" opacity="1.00" d=" M 495.29 353.00 C 501.55 358.49 508.25 363.43 515.04 368.24 C 508.82 376.86 501.42 386.08 490.37 388.19 C 495.97 381.70 501.80 375.41 507.50 369.00 C 501.72 366.99 495.95 364.98 490.21 362.91 C 491.91 359.61 493.60 356.31 495.29 353.00 Z" />
<path fill="#e4e3e3" opacity="1.00" d=" M 449.73 402.67 C 451.78 398.18 456.89 396.03 461.64 396.80 C 461.27 405.10 455.66 413.85 460.09 421.86 C 469.44 434.24 485.06 439.25 495.86 450.05 C 498.87 453.00 501.81 456.50 502.00 460.93 C 503.45 471.92 495.40 481.90 485.74 486.11 C 486.50 477.49 487.35 468.89 488.18 460.29 C 478.67 448.22 462.86 443.56 453.24 431.63 C 446.72 423.70 445.33 411.92 449.73 402.67 Z" />
<path fill="#e4e3e3" opacity="1.00" d=" M 451.08 454.07 C 454.84 452.26 458.64 450.51 462.40 448.69 C 460.48 455.86 460.94 463.80 464.78 470.28 C 470.98 481.11 481.90 487.86 490.22 496.87 C 492.71 499.53 493.90 503.43 492.88 506.99 C 491.45 512.69 487.37 517.12 483.90 521.67 C 484.85 516.17 484.44 510.29 481.63 505.38 C 474.38 492.26 458.77 486.55 451.61 473.38 C 448.31 467.44 448.86 460.28 451.08 454.07 Z" />
<path fill="#e4e3e3" opacity="1.00" d=" M 452.67 500.21 C 455.59 499.97 458.51 499.76 461.44 499.55 C 467.57 515.98 481.27 527.72 490.20 542.48 C 476.89 529.26 458.74 519.05 452.67 500.21 Z" />
<path fill="#e4e3e3" opacity="1.00" d=" M 61.40 540.61 C 67.93 538.73 76.20 541.73 79.03 548.14 C 80.92 553.09 76.38 557.12 73.04 560.04 C 66.88 564.14 58.05 561.87 53.28 556.64 C 50.73 554.04 50.45 549.56 53.09 546.93 C 55.61 544.55 58.04 541.75 61.40 540.61 Z" />
<path fill="#e4e3e3" opacity="1.00" d=" M 71.16 618.68 C 63.16 617.95 58.33 607.50 62.72 600.84 C 66.51 601.29 70.31 601.72 74.11 602.11 C 75.50 604.55 76.99 607.11 76.99 610.02 C 76.92 613.72 74.36 617.03 71.16 618.68 Z" />
<path fill="#e4e3e3" opacity="1.00" d=" M 451.44 603.57 C 455.18 602.76 458.97 603.99 462.44 605.30 C 466.48 606.96 470.87 608.22 474.08 611.36 C 473.96 614.40 473.62 617.46 474.23 620.48 C 472.33 622.93 470.92 625.81 470.99 628.98 C 470.97 635.98 474.09 642.42 476.67 648.77 C 470.13 641.09 462.83 634.02 454.52 628.28 C 452.47 636.65 452.82 646.06 447.36 653.22 C 446.70 638.45 449.13 623.64 447.37 608.90 C 446.55 606.26 449.09 604.08 451.44 603.57 M 456.14 610.20 C 454.14 611.06 453.61 614.29 455.46 615.57 C 457.48 617.30 460.43 619.89 463.17 618.14 C 465.85 616.23 463.88 612.65 461.94 611.04 C 460.08 610.51 458.07 609.73 456.14 610.20 Z" />
<path fill="#e4e3e3" opacity="1.00" d=" M 511.36 606.37 C 513.17 605.50 515.95 606.78 515.93 608.97 C 516.69 620.57 518.47 632.44 515.80 643.92 C 515.41 646.13 512.31 646.62 510.83 645.20 C 509.11 644.04 509.81 641.77 510.07 640.10 C 511.91 630.11 510.23 619.97 509.66 609.95 C 509.42 608.53 509.84 606.86 511.36 606.37 Z" />
<path fill="#e4e3e3" opacity="1.00" d=" M 492.72 635.02 C 496.42 625.61 500.31 615.88 507.63 608.62 C 503.82 622.58 498.57 636.46 489.64 648.00 C 486.58 637.86 483.78 627.65 480.67 617.54 C 480.04 615.48 480.38 613.31 480.40 611.21 C 480.97 611.23 482.13 611.26 482.70 611.28 C 485.19 619.52 488.51 627.51 492.72 635.02 Z" />
<path fill="#e4e3e3" opacity="1.00" d=" M 529.33 610.48 C 533.13 609.36 537.13 610.56 540.99 610.73 C 546.97 611.41 550.63 617.05 551.99 622.44 C 548.35 620.18 543.83 621.17 540.36 618.70 C 537.78 617.53 534.85 617.53 532.14 616.84 C 531.30 618.03 530.39 619.16 529.53 620.32 C 528.96 625.11 526.63 630.26 529.00 634.90 C 530.07 637.72 533.09 639.44 536.08 639.01 C 542.40 638.29 547.72 634.39 553.01 631.18 C 549.15 636.44 546.75 644.96 538.97 645.23 C 533.33 646.71 528.54 642.54 525.97 637.96 C 524.30 634.77 520.87 631.78 522.04 627.86 C 522.96 624.42 520.15 620.05 523.40 617.38 C 525.98 615.54 526.06 611.47 529.33 610.48 Z" />
<path fill="#e4e3e3" opacity="1.00" d=" M 559.00 609.89 C 566.95 610.08 574.91 610.25 582.86 610.25 C 583.06 611.60 583.27 612.96 583.51 614.32 C 575.31 613.93 567.11 616.66 560.85 621.97 C 568.65 622.87 576.49 623.49 584.28 624.50 C 578.75 627.27 572.27 627.58 567.00 630.89 C 564.56 632.36 563.42 635.04 562.73 637.68 C 569.50 638.77 576.29 639.75 583.08 640.78 C 583.13 642.36 583.19 643.94 583.25 645.53 C 575.33 645.34 567.40 645.15 559.48 644.96 C 559.19 633.27 558.94 621.58 559.00 609.89 Z" />
<path fill="#e4e3e3" opacity="1.00" d=" M 385.93 611.03 C 393.63 609.65 401.34 611.51 408.83 613.18 C 401.96 615.49 395.11 617.83 388.25 620.17 C 397.53 622.14 405.76 628.00 410.51 636.23 C 408.69 640.30 405.44 643.99 400.91 644.94 C 393.05 646.67 385.10 642.79 379.46 637.52 C 387.71 637.89 395.95 638.58 404.21 638.92 C 398.57 633.11 390.44 630.04 385.80 623.24 C 383.22 619.56 384.05 614.81 385.93 611.03 Z" />
<path fill="#e4e3e3" opacity="1.00" d=" M 416.11 610.75 C 424.09 610.50 432.06 610.55 440.04 610.35 C 439.97 611.75 439.94 613.16 439.93 614.57 C 432.85 616.99 425.71 619.23 418.63 621.66 C 425.89 623.79 433.18 625.82 440.46 627.92 C 432.84 631.10 425.21 634.24 417.60 637.42 C 424.96 638.46 432.33 639.43 439.69 640.48 C 439.75 642.06 439.82 643.65 439.90 645.25 C 432.15 645.16 424.40 645.46 416.65 645.38 C 416.36 633.83 416.24 622.29 416.11 610.75 Z" />
<path fill="#e4e3e3" opacity="1.00" d=" M 94.37 655.69 C 97.32 655.29 101.03 654.06 103.39 656.57 C 105.19 659.17 103.78 662.40 103.16 665.16 C 100.17 665.54 96.23 666.82 94.01 664.06 C 92.41 661.46 93.74 658.37 94.37 655.69 Z" />
<path fill="#e4e3e3" opacity="1.00" d=" M 410.96 874.30 C 418.50 874.62 426.03 875.14 433.57 875.63 C 433.18 880.04 432.79 884.45 432.39 888.86 C 425.74 890.38 418.82 890.47 412.13 889.12 C 411.30 884.22 410.98 879.26 410.96 874.30 Z" />
</g>
<g id="#741012ff">
<path fill="#741012" opacity="1.00" d=" M 416.87 224.81 C 437.53 216.98 456.00 203.48 477.98 199.26 C 481.19 198.26 484.34 199.69 487.35 200.70 C 507.21 207.47 525.36 218.22 544.64 226.38 C 558.86 232.03 573.08 237.76 587.73 242.27 C 633.71 256.71 681.55 263.57 728.85 272.13 C 725.94 324.11 726.90 376.33 720.76 428.09 C 716.99 461.54 709.06 494.43 698.36 526.31 C 685.64 563.36 667.85 598.59 646.23 631.23 C 637.06 644.88 627.61 658.40 616.59 670.63 C 578.63 714.30 534.23 753.83 481.30 778.27 C 479.16 779.05 476.75 781.17 474.54 779.45 C 386.56 731.34 313.61 654.70 273.60 562.42 C 265.89 545.05 260.12 526.93 254.10 508.93 C 240.58 466.63 235.08 422.25 232.54 378.05 C 230.52 342.70 230.23 307.28 229.25 271.89 C 272.12 264.74 315.23 258.12 357.13 246.27 C 377.53 240.57 397.52 233.42 416.87 224.81 M 432.36 281.45 C 408.22 293.21 387.17 310.43 362.69 321.55 C 371.54 321.42 379.87 324.74 387.88 328.12 C 393.04 324.28 399.81 322.93 405.97 324.94 C 404.64 328.61 403.33 332.29 401.87 335.91 C 406.07 330.61 412.97 327.82 419.66 329.37 C 420.49 330.34 421.36 331.28 422.21 332.24 C 426.14 330.94 430.08 329.68 434.02 328.42 C 422.97 319.66 409.77 314.30 398.09 306.51 C 405.75 302.77 413.37 298.97 421.00 295.19 C 423.41 307.33 434.25 314.45 442.76 322.25 C 447.23 325.84 449.79 331.16 453.98 335.00 C 456.27 337.17 459.80 338.19 462.76 336.79 C 465.70 332.96 468.12 328.75 470.86 324.77 C 464.11 323.52 456.80 321.21 452.56 315.43 C 449.76 311.63 450.96 306.30 453.91 302.95 C 456.90 299.61 459.15 294.90 457.37 290.41 C 453.72 281.11 441.09 276.36 432.36 281.45 M 474.41 281.64 C 467.98 283.78 467.33 293.62 472.77 297.21 C 476.00 299.31 480.09 297.78 483.17 296.14 C 488.41 292.49 486.78 283.22 480.89 281.14 C 478.76 280.35 476.46 280.95 474.41 281.64 M 502.84 288.80 C 499.28 298.36 508.51 306.81 506.66 316.43 C 498.90 320.96 491.20 325.57 483.43 330.08 C 482.32 320.68 481.28 311.26 480.18 301.86 C 478.12 306.47 473.95 310.58 474.73 316.00 C 474.64 337.01 470.51 358.92 478.31 379.12 C 480.94 362.84 481.88 346.33 482.01 329.86 C 486.93 333.95 493.47 336.70 499.95 335.30 C 507.73 333.81 513.60 327.48 516.78 320.51 C 521.96 318.87 527.10 316.76 531.36 313.30 C 536.43 309.43 539.69 303.65 541.23 297.52 C 545.13 300.81 549.77 304.47 550.26 309.94 C 550.65 313.66 548.25 316.75 545.99 319.41 C 554.05 325.30 562.31 331.03 571.35 335.33 C 565.46 330.12 559.50 324.99 553.61 319.78 C 555.08 317.54 556.54 315.29 558.00 313.05 C 569.01 322.20 582.28 329.23 596.72 330.58 C 580.04 317.11 561.16 306.77 543.87 294.15 C 536.46 289.10 528.92 283.50 519.92 281.78 C 513.62 280.53 506.00 282.95 502.84 288.80 M 430.24 333.97 C 433.34 342.47 440.67 349.06 449.50 351.13 C 446.27 357.02 443.04 362.90 439.86 368.82 C 442.55 372.81 445.70 376.50 449.41 379.58 C 461.52 389.81 477.02 394.82 489.38 404.67 C 492.87 407.28 494.40 411.84 493.65 416.08 C 492.44 424.01 487.54 430.76 486.08 438.63 C 497.11 435.78 506.00 425.51 506.70 414.07 C 507.12 407.78 503.78 401.83 499.00 397.94 C 483.72 384.39 462.20 381.75 446.13 369.43 C 451.19 364.06 456.49 358.91 462.03 354.04 C 453.35 353.77 449.32 345.27 444.53 339.43 C 441.26 335.01 435.66 332.69 430.24 333.97 M 508.46 345.11 C 509.39 347.74 510.66 351.33 514.02 351.38 C 518.68 350.87 522.43 346.54 523.27 342.08 C 523.93 338.99 520.60 337.28 517.99 337.52 C 513.23 337.03 511.52 342.48 508.46 345.11 M 495.29 353.00 C 493.60 356.31 491.91 359.61 490.21 362.91 C 495.95 364.98 501.72 366.99 507.50 369.00 C 501.80 375.41 495.97 381.70 490.37 388.19 C 501.42 386.08 508.82 376.86 515.04 368.24 C 508.25 363.43 501.55 358.49 495.29 353.00 M 449.73 402.67 C 445.33 411.92 446.72 423.70 453.24 431.63 C 462.86 443.56 478.67 448.22 488.18 460.29 C 487.35 468.89 486.50 477.49 485.74 486.11 C 495.40 481.90 503.45 471.92 502.00 460.93 C 501.81 456.50 498.87 453.00 495.86 450.05 C 485.06 439.25 469.44 434.24 460.09 421.86 C 455.66 413.85 461.27 405.10 461.64 396.80 C 456.89 396.03 451.78 398.18 449.73 402.67 M 451.08 454.07 C 448.86 460.28 448.31 467.44 451.61 473.38 C 458.77 486.55 474.38 492.26 481.63 505.38 C 484.44 510.29 484.85 516.17 483.90 521.67 C 487.37 517.12 491.45 512.69 492.88 506.99 C 493.90 503.43 492.71 499.53 490.22 496.87 C 481.90 487.86 470.98 481.11 464.78 470.28 C 460.94 463.80 460.48 455.86 462.40 448.69 C 458.64 450.51 454.84 452.26 451.08 454.07 M 452.67 500.21 C 458.74 519.05 476.89 529.26 490.20 542.48 C 481.27 527.72 467.57 515.98 461.44 499.55 C 458.51 499.76 455.59 499.97 452.67 500.21 M 451.44 603.57 C 449.09 604.08 446.55 606.26 447.37 608.90 C 449.13 623.64 446.70 638.45 447.36 653.22 C 452.82 646.06 452.47 636.65 454.52 628.28 C 462.83 634.02 470.13 641.09 476.67 648.77 C 474.09 642.42 470.97 635.98 470.99 628.98 C 470.92 625.81 472.33 622.93 474.23 620.48 C 473.62 617.46 473.96 614.40 474.08 611.36 C 470.87 608.22 466.48 606.96 462.44 605.30 C 458.97 603.99 455.18 602.76 451.44 603.57 M 511.36 606.37 C 509.84 606.86 509.42 608.53 509.66 609.95 C 510.23 619.97 511.91 630.11 510.07 640.10 C 509.81 641.77 509.11 644.04 510.83 645.20 C 512.31 646.62 515.41 646.13 515.80 643.92 C 518.47 632.44 516.69 620.57 515.93 608.97 C 515.95 606.78 513.17 605.50 511.36 606.37 M 492.72 635.02 C 488.51 627.51 485.19 619.52 482.70 611.28 C 482.13 611.26 480.97 611.23 480.40 611.21 C 480.38 613.31 480.04 615.48 480.67 617.54 C 483.78 627.65 486.58 637.86 489.64 648.00 C 498.57 636.46 503.82 622.58 507.63 608.62 C 500.31 615.88 496.42 625.61 492.72 635.02 M 529.33 610.48 C 526.06 611.47 525.98 615.54 523.40 617.38 C 520.15 620.05 522.96 624.42 522.04 627.86 C 520.87 631.78 524.30 634.77 525.97 637.96 C 528.54 642.54 533.33 646.71 538.97 645.23 C 546.75 644.96 549.15 636.44 553.01 631.18 C 547.72 634.39 542.40 638.29 536.08 639.01 C 533.09 639.44 530.07 637.72 529.00 634.90 C 526.63 630.26 528.96 625.11 529.53 620.32 C 530.39 619.16 531.30 618.03 532.14 616.84 C 534.85 617.53 537.78 617.53 540.36 618.70 C 543.83 621.17 548.35 620.18 551.99 622.44 C 550.63 617.05 546.97 611.41 540.99 610.73 C 537.13 610.56 533.13 609.36 529.33 610.48 M 559.00 609.89 C 558.94 621.58 559.19 633.27 559.48 644.96 C 567.40 645.15 575.33 645.34 583.25 645.53 C 583.19 643.94 583.13 642.36 583.08 640.78 C 576.29 639.75 569.50 638.77 562.73 637.68 C 563.42 635.04 564.56 632.36 567.00 630.89 C 572.27 627.58 578.75 627.27 584.28 624.50 C 576.49 623.49 568.65 622.87 560.85 621.97 C 567.11 616.66 575.31 613.93 583.51 614.32 C 583.27 612.96 583.06 611.60 582.86 610.25 C 574.91 610.25 566.95 610.08 559.00 609.89 M 385.93 611.03 C 384.05 614.81 383.22 619.56 385.80 623.24 C 390.44 630.04 398.57 633.11 404.21 638.92 C 395.95 638.58 387.71 637.89 379.46 637.52 C 385.10 642.79 393.05 646.67 400.91 644.94 C 405.44 643.99 408.69 640.30 410.51 636.23 C 405.76 628.00 397.53 622.14 388.25 620.17 C 395.11 617.83 401.96 615.49 408.83 613.18 C 401.34 611.51 393.63 609.65 385.93 611.03 M 416.11 610.75 C 416.24 622.29 416.36 633.83 416.65 645.38 C 424.40 645.46 432.15 645.16 439.90 645.25 C 439.82 643.65 439.75 642.06 439.69 640.48 C 432.33 639.43 424.96 638.46 417.60 637.42 C 425.21 634.24 432.84 631.10 440.46 627.92 C 433.18 625.82 425.89 623.79 418.63 621.66 C 425.71 619.23 432.85 616.99 439.93 614.57 C 439.94 613.16 439.97 611.75 440.04 610.35 C 432.06 610.55 424.09 610.50 416.11 610.75 Z" />
<path fill="#741012" opacity="1.00" d=" M 456.14 610.20 C 458.07 609.73 460.08 610.51 461.94 611.04 C 463.88 612.65 465.85 616.23 463.17 618.14 C 460.43 619.89 457.48 617.30 455.46 615.57 C 453.61 614.29 454.14 611.06 456.14 610.20 Z" />
</g>
</svg>
